<?xml version="1.0" encoding="utf-8"?>
<!-- Generator: Adobe Illustrator 21.0.0, SVG Export Plug-In . SVG Version: 6.00 Build 0)  -->
<svg version="1.1" xmlns="http://www.w3.org/2000/svg" xmlns:xlink="http://www.w3.org/1999/xlink" x="0px" y="0px"
	 viewBox="0 0 560 288" style="enable-background:new 0 0 560 288; transform:scale(1.6)" xml:space="preserve">
<style type="text/css">
	.st0{fill:#FFCC00;}
	.st1{fill:#FF6699;}
</style>
<path class="st0" d="M132.4,121c-12.7,0-24.5,10.4-24.4,22.2v44.4h3c8.2,0,14.8-6.6,14.8-14.8v0v-3.9v-24.2h0.1
	c0.4-3.1,2.9-5.6,6-5.9c3.8-0.3,7.2,2.9,7.2,6.6c0,3.7-3,6.7-6.7,6.7c-1.4,0-2.6-0.4-3.7-1.1v18.6c1.2,0.2,2.4,0.3,3.7,0.3
	c13.5,0,24.4-10.9,24.4-24.4C156.8,132,145.9,121,132.4,121z"/>
<path class="st0" d="M247.8,121c-13.8,0-24.9,11-25.2,24.7c-0.2,11.6,7.4,21.3,19,23.3c4.6,0.8,7.6,0.8,10.5,0.4v-17.4
	c-1.6,1.2-3.7,1.8-6,1.3c-2.9-0.6-5.2-3-5.7-5.9c-0.8-4.7,2.9-8.8,7.5-8.7c4,0.1,7.1,3.6,7.1,7.6v1.3v22.2h17.2v-32.6
	C268.5,126.9,259.6,121,247.8,121z"/>
<path class="st1" d="M312.7,148.8c-1.2,2.7-3.8,4.5-6.9,4.5c-4.1,0-7.5-3.4-7.5-7.5c0-4.1,3.4-7.5,7.5-7.5c3.1,0,5.7,1.9,6.9,4.5h17
	c-1.1-12.6-11.7-22.5-24.7-22.5c-13.7,0-24.8,11.1-24.8,24.8c0,13.7,11.1,24.8,24.8,24.8c12.4,0,22.7-9.1,24.5-21H312.7z"/>
<path class="st0" d="M373.9,122.1c-4.5-3.1-10.6-2.6-14.7,0.9c-1.1,1-1.9,2.1-1.9,3.2v-3.7c0-10.6-8.6-19.2-19.2-19.2h0v66.6h19.2
	v-27.9c0-1.5,1-2.9,2.5-3.1c1.8-0.3,3.5,1.1,3.5,2.9v28.1h17.8v-33.3C380.9,130.5,378.3,125.1,373.9,122.1z"/>
<path class="st0" d="M414.5,121c-13.8,0-24.9,11-25.2,24.7c-0.2,11.6,7.4,21.3,19,23.3c4.6,0.8,7.6,0.8,10.5,0.4v-17.4
	c-1.6,1.2-3.7,1.8-6,1.3c-2.9-0.6-5.2-3-5.7-5.9c-0.8-4.7,2.9-8.8,7.5-8.7c4,0.1,7.1,3.6,7.1,7.6v1.3v22.2h17.2v-32.6
	C435.2,126.9,426.4,121,414.5,121z"/>
<path class="st0" d="M187.1,121.2c-11.6,1.3-20.9,10.5-22.1,22.1c-1.7,15.2,10.2,28,25,28c0.1,0,0.1,0,0.2,0c11.6,0,16-5,16-5
	s-10.5-12.8-10.6-12.8c-0.4,0.2-2.4,1.5-5.4,1.5c-4.7,0-8.5-4.1-8.5-9.2c0-5.1,3.8-9.2,8.5-9.2c2.3,0,4.4,1,5.9,2.6
	c0.1,0.1,0.1,0.1,0.2,0.2c0,0,0.6,0.7,1,1.3c0.3,0.4,0.5,0.9,0.7,1.4h-4.1c-3.7,0-6.7,3-6.7,6.7l0,0h11.1h14h2.9
	c0-0.5,0.1-2,0.1-2.5C215.1,131.3,202.3,119.5,187.1,121.2z"/>
</svg>
